<svg id="Out_line" height="512" viewBox="0 0 512 512" width="512" xmlns="http://www.w3.org/2000/svg" data-name="Out line"><path d="m488 16h-464a8.00008 8.00008 0 0 0 -8 8v464a8.00008 8.00008 0 0 0 8 8h464a8.00008 8.00008 0 0 0 8-8v-464a8.00008 8.00008 0 0 0 -8-8zm-456 464v-384h136v24a8.00008 8.00008 0 0 0 8 8h256v-16h-248v-16h280v-16h-432v-48h448v112h-16v-32h-16v352h16v-256h16v272zm448-288h-16v-32h16z"/><circle cx="56" cy="56" r="8"/><circle cx="88" cy="56" r="8"/><circle cx="120" cy="56" r="8"/><path d="m80 112h72v16h-72z"/><circle cx="56" cy="120" r="8"/><path d="m168 48h176v16h-176z"/><path d="m240 352a104 104 0 1 0 -104-104 104.11791 104.11791 0 0 0 104 104zm0-16a87.46662 87.46662 0 0 1 -46.43347-13.281l5.20247-20.8108 36.20215-14.48047a7.99855 7.99855 0 0 0 4.18408-3.84961l5.78911-11.57812h3.05566a8.00035 8.00035 0 0 0 5.65674-2.34277l8-8-11.31348-11.31446-5.65674 5.65723h-12.68652v-16a8.00008 8.00008 0 0 0 -8-8h-4.90039l4.48975-13.46973a8.00643 8.00643 0 0 0 .41064-2.53027v-8h34.04785l20.91644 69.72168-20.621 20.62109 11.31348 11.31446 20.2702-20.27027 22.24762 8.89917a87.95969 87.95969 0 0 1 -72.17459 37.71387zm0-176a87.99174 87.99174 0 0 1 80.17981 124.25562l-25.6261-10.25074-22.89111-76.30371a8.00017 8.00017 0 0 0 -7.6626-5.70117h-48a8.00917 8.00917 0 0 1 -8-8h-16a24.038 24.038 0 0 0 16 22.62378v8.07837l-7.58936 22.76758a8.00022 8.00022 0 0 0 7.58936 10.53027h8v16a8.00008 8.00008 0 0 0 8 8h3.05566l-.85107 1.70215-37.17578 14.87012a7.99936 7.99936 0 0 0 -4.79 5.4873l-4.5014 18.00562a87.95608 87.95608 0 0 1 60.26259-152.06519z"/><path d="m408 376h-336a8.00008 8.00008 0 0 0 -8 8v64a8.00008 8.00008 0 0 0 8 8h336a8.00008 8.00008 0 0 0 8-8v-64a8.00008 8.00008 0 0 0 -8-8zm-8 64h-320v-48h320z"/><path d="m104 408h16v16h-16z"/><path d="m136 408h16v16h-16z"/><path d="m168 408h16v16h-16z"/><path d="m200 408h16v16h-16z"/><path d="m232 408h16v16h-16z"/><path d="m264 408h16v16h-16z"/><path d="m296 408h16v16h-16z"/><path d="m328 408h16v16h-16z"/><path d="m360 408h16v16h-16z"/></svg>