<svg id="Out_line" height="512" viewBox="0 0 512 512" width="512" xmlns="http://www.w3.org/2000/svg" data-name="Out line">
    <path fill="#fff" d="m24 424h192v-16h-184v-312h344v-16h-344v-48h360v112h-16v-32h-16v144h16v-48h16v48h16v-232a7.99977 7.99977 0 0 0 -8-8h-376a7.99977 7.99977 0 0 0 -8 8v392a7.99977 7.99977 0 0 0 8 8zm352-232v-32h16v32z"/>
    <path fill="#fff" d="m264 176a7.99977 7.99977 0 0 0 8-8v-48a7.99977 7.99977 0 0 0 -8-8h-104a7.99977 7.99977 0 0 0 -8 8v48a7.99977 7.99977 0 0 0 8 8zm-96-48h88v32h-88z"/>
    <path fill="#fff" d="m160 200a7.99977 7.99977 0 0 0 -8-8h-96a7.99977 7.99977 0 0 0 -8 8v64a7.99977 7.99977 0 0 0 8 8h96a7.99977 7.99977 0 0 0 8-8zm-16 56h-80v-48h80z"/>
    <path fill="#fff" d="m256 192h88v16h-88z"/>
    <path fill="#fff" d="m208 192h32v16h-32z"/>
    <path fill="#fff" d="m176 224h168v16h-168z"/>
    <path fill="#fff" d="m176 256h104v16h-104z"/>
    <path fill="#fff" d="m240 296h16v16h-16z"/>
    <path fill="#fff" d="m192 296h32v16h-32z"/>
    <path fill="#fff" d="m176 328h56v16h-56z"/>
    <path fill="#fff" d="m288 368v32a7.99977 7.99977 0 0 0 8 8h6.05908l-4.28418 4.28418a7.99915 7.99915 0 0 0 0 11.31348l22.62744 22.62744a8 8 0 0 0 11.314 0l4.28366-4.28467v6.05957a7.99977 7.99977 0 0 0 8 8h32a7.99977 7.99977 0 0 0 8-8v-6.05908l4.28418 4.28418a8 8 0 0 0 11.31348 0l22.62744-22.62744a7.99915 7.99915 0 0 0 0-11.31348l-4.28418-4.28418h6.05908a7.99977 7.99977 0 0 0 8-8v-32a7.99977 7.99977 0 0 0 -8-8h-6.05908l4.28418-4.28467a7.99958 7.99958 0 0 0 0-11.31347l-22.62744-22.627a7.99915 7.99915 0 0 0 -11.31348 0l-4.28418 4.28422v-6.05908a7.99977 7.99977 0 0 0 -8-8h-32a7.99977 7.99977 0 0 0 -8 8v6.05908l-4.28418-4.28418a7.99915 7.99915 0 0 0 -11.31348 0l-22.62744 22.627a7.99958 7.99958 0 0 0 0 11.31347l4.28418 4.28463h-6.05908a7.99977 7.99977 0 0 0 -8 8zm16 8h10.77148a8.00055 8.00055 0 0 0 7.542-5.33154 39.69766 39.69766 0 0 1 1.605-3.88819 7.99993 7.99993 0 0 0 -1.56055-9.10839l-7.61279-7.61329 11.314-11.31347 7.6128 7.61279a7.99966 7.99966 0 0 0 9.10839 1.56055 39.69766 39.69766 0 0 1 3.88819-1.605 8.00055 8.00055 0 0 0 5.33148-7.54198v-10.77148h16v10.77148a8.00055 8.00055 0 0 0 5.33154 7.542 39.69766 39.69766 0 0 1 3.88819 1.605 8.00033 8.00033 0 0 0 9.10839-1.56055l7.6128-7.61279 11.314 11.31347-7.61279 7.61329a7.99993 7.99993 0 0 0 -1.56055 9.10839 39.69766 39.69766 0 0 1 1.605 3.88819 8.00055 8.00055 0 0 0 7.54194 5.33152h10.77148v16h-10.77148a8.00055 8.00055 0 0 0 -7.542 5.33154 39.69766 39.69766 0 0 1 -1.605 3.88819 7.99993 7.99993 0 0 0 1.56055 9.10839l7.61279 7.6128-11.314 11.314-7.6128-7.61279a7.99953 7.99953 0 0 0 -9.10839-1.56055 39.69766 39.69766 0 0 1 -3.88819 1.605 8.00055 8.00055 0 0 0 -5.33148 7.54194v10.77148h-16v-10.77148a8.00055 8.00055 0 0 0 -5.33154-7.542 39.69766 39.69766 0 0 1 -3.88819-1.605 8.00127 8.00127 0 0 0 -9.10839 1.56006l-7.6128 7.61279-11.314-11.31347 7.61279-7.6128a7.99993 7.99993 0 0 0 1.56055-9.10839 39.69766 39.69766 0 0 1 -1.605-3.88819 8.00055 8.00055 0 0 0 -7.54194-5.33152h-10.77148z"/>
    <path fill="#fff" d="m359.77148 408.23a24.00122 24.00122 0 1 0 -24.00148-24.00148 24.02833 24.02833 0 0 0 24.00148 24.00148zm0-32.00244a8.00122 8.00122 0 1 1 -8.00146 8.001 8.0102 8.0102 0 0 1 8.00146-8.00102z"/>
    <path fill="#fff" d="m360 272a111.75521 111.75521 0 0 0 -103.41309 68.9209l14.76758 6.1582a96.01393 96.01393 0 0 1 184.57951 33.54144l-10.27728-10.27728-11.31348 11.31348 24 24a7.99945 7.99945 0 0 0 11.31348 0l24-24-11.31348-11.31348-10.39424 10.39423a112.13176 112.13176 0 0 0 -111.949-108.73749z"/>
    <path fill="#fff" d="m248.522 394.79144a112.01542 112.01542 0 0 0 210.85688 40.90631l-14.18848-7.3955a96.01964 96.01964 0 0 1 -180.43378-32.23212l9.58661 9.58661 11.31348-11.31348-24-24a8 8 0 0 0 -11.31348 0l-24 24 11.31348 11.31348z"/>
    <path fill="#fff" d="m152 296h-96a7.99977 7.99977 0 0 0 -8 8v64a7.99977 7.99977 0 0 0 8 8h96a7.99977 7.99977 0 0 0 8-8v-64a7.99977 7.99977 0 0 0 -8-8zm-8 64h-80v-48h80z"/>
    <circle fill="#fff" cx="56" cy="56" r="8"/>
    <circle fill="#fff" cx="88" cy="56" r="8"/>
    <circle fill="#fff" cx="120" cy="56" r="8"/>
</svg>
