<?xml version="1.0" encoding="iso-8859-1"?>
<!-- Generator: Adobe Illustrator 19.0.0, SVG Export Plug-In . SVG Version: 6.00 Build 0)  -->
<svg version="1.1" id="Capa_1" fill="#fff" xmlns="http://www.w3.org/2000/svg" xmlns:xlink="http://www.w3.org/1999/xlink" x="0px" y="0px"
	 viewBox="0 0 480 480" style="enable-background:new 0 0 480 480;" xml:space="preserve">
<g>
	<g>
		<path d="M64,0C28.654,0,0,28.654,0,64c0.04,35.329,28.671,63.96,64,64c35.346,0,64-28.654,64-64C128,28.654,99.346,0,64,0z
			 M64,112c-26.51,0-48-21.49-48-48c0.029-26.498,21.502-47.971,48-48c26.51,0,48,21.49,48,48S90.51,112,64,112z"/>
	</g>
</g>
<g>
	<g>
		<path d="M184,0c-22.081,0.026-39.974,17.919-40,40c0,22.091,17.909,40,40,40s40-17.909,40-40S206.091,0,184,0z M184,64
			c-13.255,0-24-10.745-24-24c0.014-13.249,10.751-23.986,24-24c13.255,0,24,10.745,24,24S197.255,64,184,64z"/>
	</g>
</g>
<g>
	<g>
		<path d="M240,72c-13.255,0-24,10.745-24,24s10.745,24,24,24c13.249-0.014,23.986-10.751,24-24C264,82.745,253.255,72,240,72z
			 M240,104c-4.418,0-8-3.582-8-8s3.582-8,8-8s8,3.582,8,8C247.994,100.416,244.416,103.994,240,104z"/>
	</g>
</g>
<g>
	<g>
		<path d="M440,96c-13.255,0-24,10.745-24,24s10.745,24,24,24c13.249-0.014,23.986-10.751,24-24C464,106.745,453.255,96,440,96z
			 M440,128c-4.416-0.006-7.994-3.584-8-8c0-4.418,3.582-8,8-8s8,3.582,8,8S444.418,128,440,128z"/>
	</g>
</g>
<g>
	<g>
		<path d="M152,432c-13.249,0.014-23.986,10.751-24,24c0,13.255,10.745,24,24,24s24-10.745,24-24S165.255,432,152,432z M152,464
			c-4.418,0-8-3.582-8-8s3.582-8,8-8c4.416,0.006,7.994,3.584,8,8C160,460.418,156.418,464,152,464z"/>
	</g>
</g>
<g>
	<g>
		<path d="M120,320c-13.255,0-24,10.745-24,24c0.014,13.249,10.751,23.986,24,24c13.255,0,24-10.745,24-24S133.255,320,120,320z
			 M120,352c-4.418,0-8-3.582-8-8c0.006-4.416,3.584-7.994,8-8c4.418,0,8,3.582,8,8S124.418,352,120,352z"/>
	</g>
</g>
<g>
	<g>
		<path d="M24,136c-13.255,0-24,10.745-24,24c0.014,13.249,10.751,23.986,24,24c13.255,0,24-10.745,24-24S37.255,136,24,136z
			 M24,168c-4.418,0-8-3.582-8-8c0.006-4.416,3.584-7.994,8-8c4.418,0,8,3.582,8,8S28.418,168,24,168z"/>
	</g>
</g>
<g>
	<g>
		<path d="M160,96c-22.081,0.026-39.974,17.919-40,40c0,22.091,17.909,40,40,40s40-17.909,40-40S182.091,96,160,96z M160,160
			c-13.255,0-24-10.745-24-24c0.014-13.249,10.751-23.986,24-24c13.255,0,24,10.745,24,24S173.255,160,160,160z"/>
	</g>
</g>
<g>
	<g>
		<path d="M272,0c-17.673,0-32,14.327-32,32s14.327,32,32,32c17.665-0.02,31.98-14.335,32-32C304,14.327,289.673,0,272,0z M272,48
			c-8.833-0.009-15.991-7.167-16-16c0-8.837,7.163-16,16-16s16,7.163,16,16S280.837,48,272,48z"/>
	</g>
</g>
<g>
	<g>
		<path d="M352,40c-26.51,0-48,21.49-48,48s21.49,48,48,48c26.51,0,48-21.49,48-48C399.971,61.502,378.498,40.029,352,40z M352,120
			c-17.673,0-32-14.327-32-32s14.327-32,32-32c17.673,0,32,14.327,32,32C383.98,105.665,369.665,119.98,352,120z"/>
	</g>
</g>
<g>
	<g>
		<path d="M440,0c-22.091,0-40,17.909-40,40s17.909,40,40,40c22.091,0,40-17.909,40-40C479.974,17.919,462.081,0.026,440,0z M440,64
			c-13.255,0-24-10.745-24-24s10.745-24,24-24s24,10.745,24,24C463.986,53.249,453.249,63.986,440,64z"/>
	</g>
</g>
<g>
	<g>
		<path d="M96,168c-30.914,0.035-55.965,25.086-56,56c0,30.928,25.072,56,56,56c30.928,0,56-25.072,56-56
			C152,193.072,126.928,168,96,168z M96,264c-22.091,0-40-17.909-40-40s17.909-40,40-40c22.081,0.026,39.974,17.919,40,40
			C136,246.091,118.091,264,96,264z"/>
	</g>
</g>
<g>
	<g>
		<path d="M40,280c-22.091,0-40,17.909-40,40c0.026,22.081,17.919,39.974,40,40c22.091,0,40-17.909,40-40
			C80,297.909,62.091,280,40,280z M40,344c-13.255,0-24-10.745-24-24c0.014-13.249,10.751-23.986,24-24c13.255,0,24,10.745,24,24
			S53.255,344,40,344z"/>
	</g>
</g>
<g>
	<g>
		<path d="M56,368c-30.928,0-56,25.072-56,56c0.035,30.914,25.086,55.965,56,56c30.928,0,56-25.072,56-56
			C112,393.072,86.928,368,56,368z M56,464c-22.091,0-40-17.909-40-40c0.026-22.081,17.919-39.974,40-40c22.091,0,40,17.909,40,40
			C96,446.091,78.091,464,56,464z"/>
	</g>
</g>
<g>
	<g>
		<path d="M430.286,291.054c-1.517-1.928-3.833-3.053-6.286-3.054h-67.469l-20.898-66.402c-1.328-4.215-5.822-6.556-10.038-5.228
			c-2.491,0.785-4.443,2.736-5.228,5.228L299.469,288H232c-4.419,0.001-8,3.584-7.999,8.003c0.001,2.453,1.126,4.77,3.054,6.286
			l55.012,43.266l-21.043,68.082c-1.306,4.22,1.057,8.7,5.277,10.006c2.474,0.766,5.166,0.286,7.223-1.287L328,380.742
			l54.477,41.613c3.509,2.683,8.529,2.014,11.213-1.496c1.573-2.057,2.053-4.749,1.287-7.223l-21.043-68.082l55.012-43.266
			C432.418,299.557,433.018,294.526,430.286,291.054z M359.723,336.375c-2.602,2.048-3.675,5.488-2.699,8.652l15.273,49.422
			l-39.441-30.129c-2.866-2.193-6.845-2.193-9.711,0l-39.441,30.129l15.273-49.422c0.976-3.165-0.097-6.604-2.699-8.652L255.113,304
			h50.223c3.493,0,6.583-2.266,7.633-5.598L328,250.645l15.031,47.758c1.05,3.331,4.14,5.597,7.633,5.598h50.223L359.723,336.375z"
			/>
	</g>
</g>
<g>
	<g>
		<rect x="320" y="176" width="16" height="24"/>
	</g>
</g>
<g>
	<g>
		<rect x="320" y="456" width="16" height="24"/>
	</g>
</g>
<g>
	<g>
		<rect x="414.996" y="221.044" transform="matrix(0.7071 -0.7071 0.7071 0.7071 -36.8944 369.016)" width="24" height="16"/>
	</g>
</g>
<g>
	<g>
		<rect x="216.972" y="418.943" transform="matrix(0.7071 -0.7071 0.7071 0.7071 -234.8302 286.9562)" width="24" height="16"/>
	</g>
</g>
<g>
	<g>
		<rect x="456" y="320" width="24" height="16"/>
	</g>
</g>
<g>
	<g>
		<rect x="176" y="320" width="24" height="16"/>
	</g>
</g>
<g>
	<g>
		<rect x="418.969" y="414.983" transform="matrix(0.7071 -0.7071 0.7071 0.7071 -176.8658 426.9733)" width="16" height="24"/>
	</g>
</g>
<g>
	<g>
		<rect x="221.03" y="217.031" transform="matrix(0.7071 -0.7071 0.7071 0.7071 -94.8678 229.0301)" width="16" height="24"/>
	</g>
</g>
<g>
</g>
<g>
</g>
<g>
</g>
<g>
</g>
<g>
</g>
<g>
</g>
<g>
</g>
<g>
</g>
<g>
</g>
<g>
</g>
<g>
</g>
<g>
</g>
<g>
</g>
<g>
</g>
<g>
</g>
</svg>
